<?xml version="1.0" encoding="utf-8"?>
<!-- Generator: Adobe Illustrator 21.0.0, SVG Export Plug-In . SVG Version: 6.00 Build 0)  -->
<svg version="1.1" id="Слой_1" xmlns="http://www.w3.org/2000/svg" xmlns:xlink="http://www.w3.org/1999/xlink" x="0px" y="0px"
	 viewBox="0 0 1200 1022" style="enable-background:new 0 0 1200 1022;" xml:space="preserve">
<style type="text/css">
	.st0{clip-path:url(#SVGID_2_);}
	.st1{opacity:0.9;fill:#073A5C;enable-background:new    ;}
	.st2{opacity:0.95;fill:#073A5C;enable-background:new    ;}
	.st3{opacity:0.85;fill:#073A5C;enable-background:new    ;}
	.st4{opacity:0.92;fill:#073A5C;enable-background:new    ;}
	.st5{opacity:0.65;fill:#083E64;enable-background:new    ;}
	.st6{opacity:0.63;fill:#083E64;enable-background:new    ;}
	.st7{opacity:0.6;fill:#083E64;enable-background:new    ;}
	.st8{opacity:0.34;fill:#083E64;enable-background:new    ;}
	.st9{opacity:0.4;fill:#083E64;enable-background:new    ;}
	.st10{opacity:0.42;fill:#083E64;enable-background:new    ;}
	.st11{opacity:0.35;fill:#083E64;enable-background:new    ;}
	.st12{opacity:0.37;fill:#083E64;enable-background:new    ;}
	.st13{opacity:0.2;fill:#083E64;enable-background:new    ;}
	.st14{opacity:0.24;fill:#083E64;enable-background:new    ;}
	.st15{opacity:0.15;fill:#083E64;enable-background:new    ;}
	.st16{opacity:0.25;fill:#083E64;enable-background:new    ;}
	.st17{opacity:0.22;fill:#083E64;enable-background:new    ;}
	.st18{opacity:0.23;fill:#083E64;enable-background:new    ;}
	.st19{opacity:3.000000e-02;fill:#083E64;enable-background:new    ;}
	.st20{opacity:2.000000e-02;fill:#083E64;enable-background:new    ;}
	.st21{opacity:0.1;fill:#083E64;enable-background:new    ;}
	.st22{opacity:7.000000e-02;fill:#083E64;enable-background:new    ;}
	.st23{opacity:4.000000e-02;fill:#083E64;enable-background:new    ;}
	.st24{opacity:5.000000e-02;fill:#083E64;enable-background:new    ;}
</style>
<title>bg</title>
<g>
	<defs>
		<rect id="SVGID_1_" y="-178" width="1200" height="1200"/>
	</defs>
	<clipPath id="SVGID_2_">
		<use xlink:href="#SVGID_1_"  style="overflow:visible;"/>
	</clipPath>
	<g class="st0">
		<polygon class="st1" points="225,803.4 0,1022 -150,833.4 		"/>
		<polygon class="st2" points="1365,773.4 1200,1022 1005,908.4 		"/>
		<polygon class="st3" points="0,1022 225,803.4 300,1022 		"/>
		<polygon class="st1" points="450,893.4 300,1022 225,803.4 		"/>
		<polygon class="st4" points="300,1022 450,893.4 600,1022 		"/>
		<polygon class="st2" points="645,788.4 600,1022 450,893.4 		"/>
		<polygon class="st1" points="600,1022 645,788.4 900,1022 		"/>
		<polygon class="st3" points="1005,908.4 900,1022 645,788.4 		"/>
		<polygon class="st1" points="900,1022 1005,908.4 1200,1022 		"/>
		<polygon class="st5" points="1005,908.4 1200,584.8 1365,773.4 		"/>
		<polygon class="st5" points="-150,833.4 0,614.8 225,803.4 		"/>
		<polygon class="st6" points="1200,584.8 1005,908.4 900,719.8 		"/>
		<polygon class="st5" points="645,788.4 900,719.8 1005,908.4 		"/>
		<polygon class="st7" points="900,719.8 645,788.4 540,599.8 		"/>
		<polygon class="st5" points="450,893.4 540,599.8 645,788.4 		"/>
		<polygon class="st7" points="540,599.8 450,893.4 300,689.8 		"/>
		<polygon class="st7" points="225,803.4 300,689.8 450,893.4 		"/>
		<polygon class="st7" points="300,689.8 225,803.4 0,614.8 		"/>
		<polygon class="st8" points="180,516.3 0,614.8 -150,456.3 		"/>
		<polygon class="st9" points="1350,456.3 1200,584.8 1020,411.3 		"/>
		<polygon class="st9" points="0,614.8 180,516.3 300,689.8 		"/>
		<polygon class="st10" points="450,456.3 300,689.8 180,516.3 		"/>
		<polygon class="st11" points="300,689.8 450,456.3 540,599.8 		"/>
		<polygon class="st9" points="750,456.3 540,599.8 450,456.3 		"/>
		<polygon class="st12" points="540,599.8 750,456.3 900,719.8 		"/>
		<polygon class="st9" points="1020,411.3 900,719.8 750,456.3 		"/>
		<polygon class="st11" points="900,719.8 1020,411.3 1200,584.8 		"/>
		<polygon class="st13" points="1020,411.3 1200,267.7 1350,456.3 		"/>
		<polygon class="st13" points="-150,456.3 0,312.7 180,516.3 		"/>
		<polygon class="st14" points="1200,267.7 1020,411.3 870,297.7 		"/>
		<polygon class="st15" points="750,456.3 870,297.7 1020,411.3 		"/>
		<polygon class="st16" points="870,297.7 750,456.3 600,267.7 		"/>
		<polygon class="st17" points="450,456.3 600,267.7 750,456.3 		"/>
		<polygon class="st16" points="600,267.7 450,456.3 300,372.7 		"/>
		<polygon class="st13" points="180,516.3 300,372.7 450,456.3 		"/>
		<polygon class="st18" points="300,372.7 180,516.3 0,312.7 		"/>
		<polygon class="st19" points="1050,-53.5 1200,267.7 1350,81.5 		"/>
		<polygon class="st20" points="-150,96.5 0,312.7 150,21.5 		"/>
		<polygon class="st21" points="1200,267.7 1050,-53.5 870,297.7 		"/>
		<polygon class="st22" points="750,111.5 870,297.7 1050,-53.5 		"/>
		<polygon class="st21" points="870,297.7 750,111.5 600,267.7 		"/>
		<polygon class="st23" points="450,156.5 600,267.7 750,111.5 		"/>
		<polygon class="st21" points="600,267.7 450,156.5 300,372.7 		"/>
		<polygon class="st24" points="150,21.5 300,372.7 450,156.5 		"/>
		<polygon class="st21" points="300,372.7 150,21.5 0,312.7 		"/>
		<polygon class="st5" points="115.2,1257.8 -126.3,857.1 -330.7,1090.6 		"/>
		<polygon class="st5" points="1545.7,1164.9 1359.9,894.2 1081.2,1127.8 		"/>
		<polygon class="st6" points="-126.3,857.1 115.2,1257.8 245.2,1024.3 		"/>
		<polygon class="st7" points="245.2,1024.3 561.1,1109.2 691.1,875.7 		"/>
		<polygon class="st5" points="802.6,1239.3 691.1,875.7 561.1,1109.2 		"/>
		<polygon class="st7" points="691.1,875.7 802.6,1239.3 988.3,987.1 		"/>
		<polygon class="st7" points="1081.2,1127.8 988.3,987.1 802.6,1239.3 		"/>
		<polygon class="st7" points="988.3,987.1 1081.2,1127.8 1359.9,894.2 		"/>
		<polygon class="st8" points="1137,772.1 1359.9,894.2 1545.7,697.8 		"/>
		<polygon class="st9" points="-312.1,697.8 -126.3,857.1 96.6,642.1 		"/>
		<polygon class="st9" points="1359.9,894.2 1137,772.1 988.3,987.1 		"/>
		<polygon class="st10" points="802.6,697.8 988.3,987.1 1137,772.1 		"/>
		<polygon class="st11" points="988.3,987.1 802.6,697.8 691.1,875.7 		"/>
		<polygon class="st9" points="431,697.8 691.1,875.7 802.6,697.8 		"/>
		<polygon class="st12" points="691.1,875.7 431,697.8 245.2,1024.3 		"/>
		<polygon class="st9" points="96.6,642.1 245.2,1024.3 431,697.8 		"/>
		<polygon class="st11" points="245.2,1024.3 96.6,642.1 -126.3,857.1 		"/>
		<polygon class="st13" points="96.6,642.1 -126.3,464.3 -312.1,697.8 		"/>
		<polygon class="st13" points="1545.7,697.8 1359.9,520 1137,772.1 		"/>
		<polygon class="st14" points="-126.3,464.3 96.6,642.1 282.4,501.4 		"/>
		<polygon class="st15" points="431,697.8 282.4,501.4 96.6,642.1 		"/>
		<polygon class="st16" points="282.4,501.4 431,697.8 616.8,464.3 		"/>
		<polygon class="st17" points="802.6,697.8 616.8,464.3 431,697.8 		"/>
		<polygon class="st16" points="616.8,464.3 802.6,697.8 988.3,594.3 		"/>
		<polygon class="st13" points="1137,772.1 988.3,594.3 802.6,697.8 		"/>
		<polygon class="st18" points="988.3,594.3 1137,772.1 1359.9,520 		"/>
		<polygon class="st19" points="59.5,66.5 -126.3,464.3 -312.1,233.7 		"/>
		<polygon class="st20" points="1545.7,252.3 1359.9,520 1174.1,159.4 		"/>
		<polygon class="st21" points="-126.3,464.3 59.5,66.5 282.4,501.4 		"/>
		<polygon class="st22" points="431,270.9 282.4,501.4 59.5,66.5 		"/>
		<polygon class="st21" points="282.4,501.4 431,270.9 616.8,464.3 		"/>
		<polygon class="st23" points="802.6,326.6 616.8,464.3 431,270.9 		"/>
		<polygon class="st21" points="616.8,464.3 802.6,326.6 988.3,594.3 		"/>
		<polygon class="st24" points="1174.1,159.4 988.3,594.3 802.6,326.6 		"/>
		<polygon class="st21" points="988.3,594.3 1174.1,159.4 1359.9,520 		"/>
		<polygon class="st5" points="1009.8,1317.8 1251.3,917.1 1455.7,1150.6 		"/>
		<polygon class="st5" points="-420.7,1224.9 -234.9,954.2 43.8,1187.8 		"/>
		<polygon class="st6" points="1251.3,917.1 1009.8,1317.8 879.8,1084.3 		"/>
		<polygon class="st7" points="879.8,1084.3 563.9,1169.2 433.9,935.7 		"/>
		<polygon class="st5" points="322.4,1299.3 433.9,935.7 563.9,1169.2 		"/>
		<polygon class="st7" points="433.9,935.7 322.4,1299.3 136.7,1047.1 		"/>
		<polygon class="st7" points="136.7,1047.1 43.8,1187.8 -234.9,954.2 		"/>
		<polygon class="st9" points="1437.1,757.8 1251.3,917.1 1028.4,702.1 		"/>
		<polygon class="st9" points="-234.9,954.2 -12,832.1 136.7,1047.1 		"/>
		<polygon class="st10" points="322.4,757.8 136.7,1047.1 -12,832.1 		"/>
		<polygon class="st11" points="136.7,1047.1 322.4,757.8 433.9,935.7 		"/>
		<polygon class="st9" points="694,757.8 433.9,935.7 322.4,757.8 		"/>
		<polygon class="st12" points="433.9,935.7 694,757.8 879.8,1084.3 		"/>
		<polygon class="st9" points="1028.4,702.1 879.8,1084.3 694,757.8 		"/>
		<polygon class="st11" points="879.8,1084.3 1028.4,702.1 1251.3,917.1 		"/>
		<polygon class="st13" points="1028.4,702.1 1251.3,524.3 1437.1,757.8 		"/>
		<polygon class="st14" points="1251.3,524.3 1028.4,702.1 842.6,561.4 		"/>
		<polygon class="st15" points="694,757.8 842.6,561.4 1028.4,702.1 		"/>
		<polygon class="st16" points="842.6,561.4 694,757.8 508.2,524.3 		"/>
		<polygon class="st17" points="322.4,757.8 508.2,524.3 694,757.8 		"/>
		<polygon class="st16" points="508.2,524.3 322.4,757.8 136.7,654.3 		"/>
		<polygon class="st13" points="-12,832.1 136.7,654.3 322.4,757.8 		"/>
		<polygon class="st18" points="136.7,654.3 -12,832.1 -234.9,580 		"/>
		<polygon class="st19" points="1065.5,126.5 1251.3,524.3 1437.1,293.7 		"/>
		<polygon class="st21" points="1251.3,524.3 1065.5,126.5 842.6,561.4 		"/>
		<polygon class="st22" points="694,330.9 842.6,561.4 1065.5,126.5 		"/>
		<polygon class="st21" points="842.6,561.4 694,330.9 508.2,524.3 		"/>
		<polygon class="st23" points="322.4,386.6 508.2,524.3 694,330.9 		"/>
		<polygon class="st21" points="508.2,524.3 322.4,386.6 136.7,654.3 		"/>
		<polygon class="st24" points="-49.1,219.4 136.7,654.3 322.4,386.6 		"/>
		<polygon class="st21" points="136.7,654.3 -49.1,219.4 -234.9,580 		"/>
	</g>
</g>
</svg>
